<?xml version="1.0" encoding="utf-8"?>
<!-- Generator: Adobe Illustrator 27.4.0, SVG Export Plug-In . SVG Version: 6.00 Build 0)  -->
<svg version="1.1" id="Layer_1" xmlns="http://www.w3.org/2000/svg" xmlns:xlink="http://www.w3.org/1999/xlink" x="0px" y="0px"
	 viewBox="0 0 148.8 118.6" style="enable-background:new 0 0 148.8 118.6;" xml:space="preserve">
<style type="text/css">
	.st0{fill:#FDB714;stroke:#FDB714;stroke-width:3;stroke-miterlimit:10;}
	.st1{fill:none;stroke:#FDB714;stroke-width:3;stroke-miterlimit:10;}
	.st2{fill:none;stroke:#FDB714;stroke-width:3;stroke-miterlimit:10;stroke-dasharray:4.2195,4.2195;}
	.st3{fill:none;stroke:#FDB714;stroke-width:3;stroke-miterlimit:10;stroke-dasharray:3.6208,3.6208;}
</style>
<g>
	<polygon class="st0" points="9.6,78.7 15.6,84.6 3.6,84.6 	"/>
	<polyline class="st1" points="9.6,84.8 9.6,109 34.9,109 	"/>
	<polygon class="st0" points="40.8,109 34.9,114.9 34.9,103 	"/>
	<path class="st1" d="M100.7,26.7H32.5c-12.7,0-22.9,10.3-22.9,22.9v14.3"/>
	<g>
		<g>
			<line class="st1" x1="131.1" y1="26.7" x2="131.1" y2="24.7"/>
			<line class="st2" x1="131.1" y1="20.4" x2="131.1" y2="5.7"/>
			<path class="st1" d="M131.1,3.6v-2c0,0-0.7,0-2,0.2"/>
			<path class="st3" d="M125.6,2.2c-8.1,1.5-22.4,6.1-24.6,20.6"/>
			<path class="st1" d="M100.8,24.7c0,0.6-0.1,1.3-0.1,2"/>
		</g>
	</g>
	<path class="st1" d="M52.7,109h71.7c12.7,0,22.9-10.3,22.9-22.9V26.7h-16.2"/>
</g>
</svg>
