<?xml version="1.0" encoding="utf-8"?>
<!-- Generator: Adobe Illustrator 27.4.0, SVG Export Plug-In . SVG Version: 6.00 Build 0)  -->
<svg version="1.1" id="Layer_1" xmlns="http://www.w3.org/2000/svg" xmlns:xlink="http://www.w3.org/1999/xlink" x="0px" y="0px"
	 viewBox="0 0 18.9 20.6" style="enable-background:new 0 0 18.9 20.6;" xml:space="preserve">
<style type="text/css">
	.st0{fill:#FDB714;}
</style>
<g>
	<g>
		<path class="st0" d="M10.2,0c0.3,0,0.5,0.1,0.8,0.1c1.2,0.1,2.4,0.3,3.6,0.7c1.1,0.4,2.2,1,2.9,2c0.6,0.9,0.9,1.9,1.2,3
			c0.3,1.5,0.3,3,0.2,4.5c-0.1,0.9-0.1,1.9-0.4,2.8c-0.6,2.3-2,3.8-4.3,4.4c-1.7,0.5-3.5,0.6-5.3,0.6c-0.3,0-0.6,0-0.8-0.1
			c-0.1,0-0.2,0-0.3,0.1c-0.5,0.6-0.9,1.1-1.4,1.7c-0.2,0.2-0.4,0.4-0.6,0.6c-0.4,0.3-0.9,0.2-1.1-0.4c0-0.2-0.1-0.3-0.1-0.5
			c0-0.7,0-1.3,0-2c0-0.1,0-0.2-0.1-0.2c-2.2-0.7-3.5-2.3-4.1-4.5C0.1,12,0,11.1,0,10.2c0-0.9,0-1.8,0-2.8c0.1-1.4,0.4-2.8,1-4.1
			c0.6-1.2,1.6-1.9,2.8-2.4C5,0.5,6.1,0.3,7.3,0.1C7.7,0.1,8.1,0,8.5,0C9.1,0,9.6,0,10.2,0z M5.1,18C5.1,18,5.1,18,5.1,18
			c0,0.5,0,1,0,1.6c0,0.1,0,0.2,0,0.2c0.1,0.2,0.2,0.3,0.4,0.1c0.1-0.1,0.1-0.1,0.2-0.2c0.8-1,1.6-1.9,2.4-2.9
			c0.1-0.1,0.2-0.1,0.3-0.1c1.8,0.1,3.6-0.1,5.3-0.5c1.7-0.4,2.8-1.4,3.3-3c0.3-0.9,0.4-1.8,0.4-2.7c0-0.9,0-1.8,0-2.7
			c0-0.9-0.2-1.9-0.5-2.8c-0.4-1.3-1.3-2.2-2.6-2.7c-1-0.4-2-0.6-3.1-0.7c-1.2-0.1-2.4-0.1-3.6,0c-1,0.1-1.9,0.3-2.8,0.6
			C3.4,2.7,2.5,3.5,2,4.8C1.7,5.7,1.5,6.7,1.4,7.6c0,0.6,0,1.2-0.1,1.8c0,1,0,2,0.3,3c0.4,1.8,1.4,3.1,3.3,3.7
			c0.1,0,0.2,0.1,0.2,0.2C5.1,16.9,5.1,17.4,5.1,18z"/>
		<path class="st0" d="M12.4,14.7c-0.2,0-0.3-0.1-0.5-0.1c-2.2-0.9-4.2-2.2-5.6-4.1C5.5,9.4,5,8.3,4.5,7.1C4.4,7,4.4,6.8,4.3,6.7
			c-0.2-0.4-0.2-0.7,0-1.1C4.6,5.1,5,4.7,5.6,4.4c0.3-0.2,0.6-0.1,0.8,0.2c0.4,0.6,0.8,1.2,1.2,1.8c0.3,0.5,0.2,0.9-0.2,1.2
			c0,0,0,0,0,0C6.7,8.1,6.8,8.3,7.1,9c0.6,1.3,1.4,2.3,2.8,2.7c0.5,0.2,0.7,0.1,1-0.3c0.1-0.1,0.1-0.2,0.2-0.3
			c0.3-0.3,0.6-0.4,1-0.2c0.7,0.4,1.4,0.9,1.9,1.4c0.2,0.2,0.2,0.4,0.1,0.7c-0.3,0.6-0.7,1.1-1.3,1.4C12.7,14.6,12.5,14.6,12.4,14.7
			z"/>
		<path class="st0" d="M9.5,3.7c2.2,0.1,4.1,1.4,4.8,3.8c0.1,0.5,0.2,1.1,0.2,1.7c0,0.1,0,0.2-0.1,0.3c-0.1,0.1-0.3,0-0.3-0.2
			c0-0.6-0.1-1.1-0.2-1.6c-0.5-1.9-1.9-3.1-3.9-3.4c-0.2,0-0.4,0-0.5,0c-0.2,0-0.3-0.1-0.3-0.3C9.1,3.8,9.2,3.7,9.5,3.7
			C9.4,3.7,9.4,3.7,9.5,3.7z"/>
		<path class="st0" d="M13.2,8.6c0,0.1,0,0.1,0,0.2c0,0.1-0.1,0.2-0.2,0.2c-0.1,0-0.2-0.1-0.2-0.2c0-0.3,0-0.6-0.1-0.9
			c-0.3-1.2-1.2-2.1-2.5-2.3c-0.1,0-0.2,0-0.3,0c-0.2,0-0.2-0.1-0.2-0.3c0-0.2,0.1-0.2,0.3-0.2c1.3,0.1,2.8,0.8,3.3,2.6
			C13.1,8,13.1,8.3,13.2,8.6C13.2,8.6,13.2,8.6,13.2,8.6z"/>
		<path class="st0" d="M11.9,8.3c0,0.1-0.1,0.2-0.2,0.2c-0.1,0-0.2-0.1-0.3-0.2c0-0.1,0-0.3-0.1-0.4C11.2,7.3,10.8,7,10.2,7
			c-0.1,0-0.1,0-0.2,0c-0.1,0-0.2-0.1-0.2-0.3c0-0.1,0.1-0.2,0.3-0.2C11,6.5,11.7,6.9,11.8,8C11.8,8.1,11.9,8.2,11.9,8.3z"/>
	</g>
</g>
</svg>
