<?xml version="1.0" encoding="utf-8"?>
<!-- Generator: Adobe Illustrator 27.4.0, SVG Export Plug-In . SVG Version: 6.00 Build 0)  -->
<svg version="1.1" id="Layer_1" xmlns="http://www.w3.org/2000/svg" xmlns:xlink="http://www.w3.org/1999/xlink" x="0px" y="0px"
	 viewBox="0 0 20.3 20.3" style="enable-background:new 0 0 20.3 20.3;" xml:space="preserve">
<style type="text/css">
	.st0{fill:#FDB714;}
</style>
<g>
	<g>
		<path class="st0" d="M0.1,20.2c0.1-0.3,0.1-0.5,0.2-0.8c0.4-1.3,0.7-2.6,1.1-3.9c0,0,0-0.1,0-0.1c-0.7-1.1-1.1-2.3-1.3-3.5
			C0,11,0,10.2,0,9.3c0.1-1.5,0.6-2.9,1.3-4.2c0.8-1.4,1.8-2.5,3.1-3.4C5.6,1,6.9,0.5,8.2,0.2C9,0,9.7,0,10.4,0
			c2,0.1,3.8,0.6,5.4,1.7c1.6,1.1,2.8,2.5,3.6,4.3C19.9,7,20.1,8,20.2,9c0.2,2-0.1,4-1,5.8c-0.9,1.8-2.2,3.2-4,4.2
			c-1.1,0.7-2.4,1.1-3.7,1.3c-1,0.1-1.9,0.1-2.9,0c-1.1-0.2-2.1-0.5-3.1-1C5.4,19.1,5.2,19,5,18.9c0,0-0.1,0-0.1,0
			c-1.4,0.4-2.8,0.8-4.1,1.2C0.5,20.1,0.3,20.1,0.1,20.2z M1.7,18.6c0.1,0,0.2,0,0.3-0.1c1-0.3,2-0.6,3-0.9c0.1,0,0.1,0,0.2,0
			c1.6,1,3.4,1.5,5.3,1.5c0.7,0,1.4-0.1,2-0.3c1.8-0.5,3.3-1.4,4.5-2.8c1.4-1.6,2.2-3.5,2.2-5.7c0-1.2-0.1-2.3-0.6-3.4
			c-0.4-1.2-1.1-2.2-1.9-3.1c-0.6-0.6-1.3-1.2-2-1.6c-1.2-0.7-2.4-1.1-3.8-1.2c-0.8-0.1-1.7,0-2.5,0.1C7.6,1.4,6.8,1.7,6,2.1
			C4.8,2.7,3.8,3.6,2.9,4.7C2,5.9,1.4,7.3,1.2,8.9C1,9.9,1.1,11,1.3,12.1c0.2,1.1,0.7,2.2,1.3,3.1c0,0,0,0.1,0,0.1
			c-0.3,0.9-0.5,1.8-0.8,2.7C1.8,18.2,1.7,18.4,1.7,18.6z"/>
		<path class="st0" d="M13.6,15.8c-0.4,0-0.9-0.1-1.3-0.2c-0.9-0.3-1.8-0.7-2.6-1.3c-1.4-0.9-2.5-2.1-3.4-3.5
			C5.7,10,5.4,9.2,5.1,8.3C5.1,7.9,5,7.6,5,7.2c0-0.6,0.3-1.2,0.7-1.6C5.8,5.5,6,5.3,6.1,5.2c0.4-0.4,1-0.3,1.3,0
			C8,5.8,8.5,6.3,9,6.8c0.3,0.3,0.3,0.8,0,1.1C8.8,8.1,8.5,8.4,8.3,8.6C8.2,8.8,8.1,8.9,8.2,9.1c0.8,1.6,2,2.8,3.6,3.6
			c0.2,0.1,0.3,0.1,0.5-0.1c0.2-0.2,0.5-0.5,0.7-0.7c0.3-0.3,0.8-0.3,1.1,0c0.5,0.5,1,1,1.6,1.6c0.4,0.4,0.4,1,0,1.4
			c-0.2,0.2-0.5,0.4-0.7,0.6C14.5,15.7,14.1,15.8,13.6,15.8z"/>
	</g>
</g>
</svg>
