<?xml version="1.0" encoding="utf-8"?>
<!-- Generator: Adobe Illustrator 27.4.0, SVG Export Plug-In . SVG Version: 6.00 Build 0)  -->
<svg version="1.1" id="Layer_1" xmlns="http://www.w3.org/2000/svg" xmlns:xlink="http://www.w3.org/1999/xlink" x="0px" y="0px"
	 viewBox="0 0 168.3 17.2" style="enable-background:new 0 0 168.3 17.2;" xml:space="preserve">
<style type="text/css">
	.st0{fill:#FFFFFF;}
</style>
<g>
	<path class="st0" d="M10.1,0c8.7,0,10.1,5.2,10.1,8.6c0,3.4-1.4,8.6-10.1,8.6S0,12,0,8.6C0,5.2,1.4,0,10.1,0z M10.1,14.1
		c4,0,5.4-3,5.4-5.5c0-2.5-1.4-5.5-5.4-5.5c-4,0-5.4,3-5.4,5.5C4.7,11.1,6.1,14.1,10.1,14.1z"/>
	<path class="st0" d="M22.4,0.5h11.8c4.5,0,5.3,2.8,5.3,4.4c0,2-0.8,3.3-2.6,3.9v0c1.9,0.3,2.2,2.8,2.2,4.3c0,0.8,0.1,2.7,0.8,3.5
		h-4.8c-0.4-0.8-0.4-1.4-0.4-3.1c0-2.3-1-2.8-2.3-2.8h-5.5v6h-4.4V0.5z M26.8,7.6h5.8c1,0,2.1-0.5,2.1-2.1c0-1.6-1.3-2-2.3-2h-5.6
		V7.6z"/>
	<path class="st0" d="M41.8,0.5H54c2.4,0,4.6,1.1,4.6,4.1c0,1.3-0.6,2.8-2.2,3.3v0c1.9,0.3,2.9,2.2,2.9,3.9c0,2.2-1,4.9-5.9,4.9
		H41.8V0.5z M46.2,6.9h6.1c1,0,1.7-0.5,1.7-1.8c0-1-0.5-1.8-2.3-1.8h-5.5V6.9z M46.2,13.6h6.5c1.4,0,1.9-0.9,1.9-1.9
		c0-1.3-0.8-2-2.3-2h-6.1V13.6z"/>
	<path class="st0" d="M62,0.5h4.4v16.2H62V0.5z"/>
	<path class="st0" d="M79.8,7.6h8.3v9.1h-2.2l-0.6-1.9c-1.5,1.7-4,2.3-6.8,2.3c-5.9,0-9.6-2.5-9.6-8.6c0-5,3.5-8.6,9.6-8.6
		c4.5,0,8.8,1.3,9.6,5.8H83c-0.7-2.1-2.5-2.7-4.1-2.7c-4,0-5.4,3-5.4,5.5c0,2.5,1.4,5.5,5.4,5.5c2.4,0,4.3-0.9,4.8-3.6h-3.9V7.6z"/>
	<path class="st0" d="M91,0.5h11.8c4.5,0,5.3,2.8,5.3,4.4c0,2-0.8,3.3-2.6,3.9v0c1.9,0.3,2.2,2.8,2.2,4.3c0,0.8,0.1,2.7,0.8,3.5
		h-4.8c-0.4-0.8-0.4-1.4-0.4-3.1c0-2.3-1-2.8-2.3-2.8h-5.5v6H91V0.5z M95.4,7.6h5.8c1,0,2.1-0.5,2.1-2.1c0-1.6-1.3-2-2.3-2h-5.6V7.6
		z"/>
	<path class="st0" d="M119.5,0c8.7,0,10.1,5.2,10.1,8.6c0,3.4-1.4,8.6-10.1,8.6s-10.1-5.2-10.1-8.6C109.4,5.2,110.8,0,119.5,0z
		 M119.5,14.1c4,0,5.4-3,5.4-5.5c0-2.5-1.4-5.5-5.4-5.5s-5.4,3-5.4,5.5C114.1,11.1,115.5,14.1,119.5,14.1z"/>
	<path class="st0" d="M131.6,0.5h4.4v9.3c0,1.6,0.1,4.3,4.1,4.3c4,0,4.1-2.7,4.1-4.3V0.5h4.4v10.4c0,1.8-0.2,6.3-8.5,6.3
		c-8.3,0-8.5-4.5-8.5-6.3V0.5z"/>
	<path class="st0" d="M151.6,0.5h10.9c4.6,0,5.7,2.8,5.7,4.9c0,3.5-1.8,5.5-5.4,5.5H156v5.8h-4.4V0.5z M156,7.9h4.7c1.4,0,3,0,3-2.2
		c0-2.1-1.3-2.3-2.5-2.3H156V7.9z"/>
</g>
</svg>
