<?xml version="1.0" standalone="no"?>
<!DOCTYPE svg PUBLIC "-//W3C//DTD SVG 20010904//EN"
 "http://www.w3.org/TR/2001/REC-SVG-20010904/DTD/svg10.dtd">
<svg version="1.0" xmlns="http://www.w3.org/2000/svg"
 width="700.000000pt" height="700.000000pt" viewBox="0 0 700.000000 700.000000"
 preserveAspectRatio="xMidYMid meet">
<metadata>
Created by potrace 1.14, written by Peter Selinger 2001-2017
</metadata>
<g transform="translate(0.000000,700.000000) scale(0.100000,-0.100000)"
fill="#000000" stroke="none">
<path d="M0 6185 l0 -815 78 39 c359 179 3238 1563 3277 1575 45 13 -120 15
-1652 15 l-1703 1 0 -815z"/>
<path d="M3640 6984 c30 -8 278 -122 550 -254 272 -131 1016 -490 1653 -798
l1157 -560 0 814 0 814 -1707 -1 c-1521 0 -1702 -2 -1653 -15z"/>
<path d="M3411 4699 c-29 -5 -79 -20 -110 -32 -31 -13 -786 -376 -1678 -807
l-1623 -784 0 -1148 0 -1148 52 24 c29 13 762 367 1628 786 866 420 1604 774
1640 787 94 36 204 41 305 15 61 -16 445 -197 1635 -772 855 -414 1597 -772
1648 -796 l92 -43 0 1147 0 1148 -1642 794 c-904 436 -1668 801 -1699 811 -72
22 -179 30 -248 18z"/>
<path d="M3364 95 c-28 -8 -89 -32 -135 -54 l-84 -39 355 0 355 0 -84 39 c-46
22 -109 46 -139 54 -69 18 -200 18 -268 0z"/>
</g>
</svg>
