<?xml version="1.0" encoding="utf-8"?>
<!-- Generator: Adobe Illustrator 27.4.0, SVG Export Plug-In . SVG Version: 6.00 Build 0)  -->
<svg version="1.1" id="Layer_1" xmlns="http://www.w3.org/2000/svg" xmlns:xlink="http://www.w3.org/1999/xlink" x="0px" y="0px"
	 viewBox="0 0 208 23.7" style="enable-background:new 0 0 208 23.7;" xml:space="preserve">
<style type="text/css">
	.st0{fill:#FFFFFF;}
</style>
<g>
	<path class="st0" d="M1.5,2.6h12.2c2.4,0,4.6,1.1,4.6,4.1c0,1.3-0.6,2.8-2.2,3.3v0C18,10.3,19,12.2,19,14c0,2.2-1,4.9-5.9,4.9H1.5
		V2.6z M6,9.1h6.1c1,0,1.7-0.5,1.7-1.8c0-1-0.5-1.8-2.3-1.8H6V9.1z M6,15.8h6.5c1.4,0,1.9-0.9,1.9-1.9c0-1.3-0.8-2-2.3-2H6V15.8z"/>
	<path class="st0" d="M21.8,2.6h4.4v13h9.9v3.2H21.8V2.6z"/>
	<path class="st0" d="M47.4,2.2c8.7,0,10.1,5.2,10.1,8.6c0,3.4-1.4,8.6-10.1,8.6s-10.1-5.2-10.1-8.6C37.3,7.4,38.6,2.2,47.4,2.2z
		 M47.4,16.2c4,0,5.4-3,5.4-5.5c0-2.5-1.4-5.5-5.4-5.5c-4,0-5.4,3-5.4,5.5C42,13.3,43.4,16.2,47.4,16.2z"/>
	<path class="st0" d="M73.4,8.8C73,6.4,71,5.3,68.7,5.3c-4.2,0-5.1,3.3-5.1,5.5c0,2.2,0.9,5.5,5.1,5.5c2.1,0,4.2-1,4.6-3.6h4.8
		c-0.5,4.7-4.4,6.7-9.6,6.7c-5.9,0-9.6-2.5-9.6-8.6c0-6,3.7-8.6,9.6-8.6c3.9,0,8.9,1,9.6,6.6H73.4z"/>
	<path class="st0" d="M92.3,2.6h5.9l-7.5,6.5l8,9.7h-6l-5.5-7l-2.6,2.2v4.8h-4.4V2.6h4.4v7L92.3,2.6z"/>
	<path class="st0" d="M118.8,9.8h8.3v9.1h-2.2l-0.6-1.9c-1.5,1.7-4,2.3-6.8,2.3c-5.9,0-9.6-2.5-9.6-8.6c0-5,3.5-8.6,9.6-8.6
		c4.5,0,8.8,1.3,9.6,5.8h-4.9c-0.7-2.1-2.5-2.7-4.1-2.7c-4,0-5.4,3-5.4,5.5c0,2.5,1.4,5.5,5.4,5.5c2.4,0,4.3-0.9,4.8-3.6h-3.9V9.8z"
		/>
	<path class="st0" d="M130,2.6h11.8c4.5,0,5.3,2.8,5.3,4.4c0,2-0.8,3.3-2.6,3.9v0c1.9,0.3,2.2,2.8,2.2,4.3c0,0.8,0.1,2.7,0.8,3.5
		h-4.8c-0.4-0.8-0.4-1.4-0.4-3.1c0-2.3-1-2.8-2.3-2.8h-5.5v6H130V2.6z M134.4,9.8h5.8c1,0,2.1-0.5,2.1-2.1c0-1.6-1.3-2-2.3-2h-5.6
		V9.8z"/>
	<path class="st0" d="M158.5,2.2c8.7,0,10.1,5.2,10.1,8.6c0,3.4-1.4,8.6-10.1,8.6s-10.1-5.2-10.1-8.6C148.4,7.4,149.8,2.2,158.5,2.2
		z M158.5,16.2c4,0,5.4-3,5.4-5.5c0-2.5-1.4-5.5-5.4-5.5s-5.4,3-5.4,5.5C153.1,13.3,154.5,16.2,158.5,16.2z"/>
	<path class="st0" d="M170.6,2.6h4.4V12c0,1.6,0.1,4.3,4.1,4.3c4,0,4.1-2.7,4.1-4.3V2.6h4.4v10.4c0,1.8-0.2,6.3-8.5,6.3
		c-8.3,0-8.5-4.5-8.5-6.3V2.6z"/>
	<path class="st0" d="M190.6,2.6h10.9c4.6,0,5.7,2.8,5.7,4.9c0,3.5-1.8,5.5-5.4,5.5H195v5.8h-4.4V2.6z M195,10.1h4.7
		c1.4,0,3,0,3-2.2c0-2.1-1.3-2.3-2.5-2.3H195V10.1z"/>
</g>
</svg>
