<?xml version="1.0" encoding="utf-8"?>
<!-- Generator: Adobe Illustrator 27.4.0, SVG Export Plug-In . SVG Version: 6.00 Build 0)  -->
<svg version="1.1" id="Layer_1" xmlns="http://www.w3.org/2000/svg" xmlns:xlink="http://www.w3.org/1999/xlink" x="0px" y="0px"
	 viewBox="0 0 156.1 35.9" style="enable-background:new 0 0 156.1 35.9;" xml:space="preserve">
<style type="text/css">
	.st0{fill:#FFFFFF;}
</style>
<g>
	<path class="st0" d="M6.1,0.6h14.7c6.7,0,13.3,1.6,11.9,9.7c-0.5,3-2.6,6.1-5.8,7l0,0.3c3.6,1.3,5.5,4.1,4.7,8.3
		c-1.3,7.2-8.3,9.6-14.4,9.6H0L6.1,0.6z M16.7,14c1.8,0,4-0.2,4.4-2.6C21.5,8.8,19.1,9,17.3,9h-0.9l-0.9,5H16.7z M13.2,27.1h1.4
		c2.1,0,5.1,0,5.6-2.9c0.5-2.9-2.7-2.9-4.8-2.9h-1.2L13.2,27.1z"/>
	<path class="st0" d="M52.1,24.2h-5.2l4.2-23.7H38.4l-6.1,34.8h26C54.8,32.8,52.6,29,52.1,24.2z"/>
	<path class="st0" d="M94.6,18.1c-2,11.2-11.8,17.9-22.4,17.9S54.1,29.2,56,18.1C58,7.1,67.9,0,78.5,0S96.5,7.1,94.6,18.1z
		 M68.8,18.3c-0.7,4,1.5,6.7,5.3,6.7c3.8,0,7-2.7,7.7-6.7c0.7-3.7-1.3-6.8-5.3-6.8C72.5,11.5,69.4,14.6,68.8,18.3z"/>
	<path class="st0" d="M122.1,0.6h12.3l-2.9,15.1h0.3c0.5-1.4,1.5-2.7,2.4-3.9l8.1-11.2h13.8l-13.9,17l8.9,17.9h-14.7l-4.1-10.5
		c-0.5-1.3-1.4-2.6-1.4-4.1h-0.3l-2.3,14.6h-12.3L122.1,0.6z"/>
	<path class="st0" d="M101.2,18c0.7-3.8,4.3-6.8,8.1-6.8c2.9,0,5.1,1.6,6.8,3.5l2-13.3c-2.5-0.9-5.4-1.4-8.2-1.4
		c-5,0-9.8,1.9-13.6,5.1c2.1,3.5,2.9,7.9,2,13c-0.9,5.3-3.3,9.7-6.6,13.1c2.6,3,6.6,4.8,11.4,4.8c2.3,0,7-0.4,9.3-1.4l2.7-13
		c-2.4,2-4.9,3.2-7.8,3.2C103.3,24.8,100.5,21.8,101.2,18z"/>
</g>
</svg>
