<?xml version="1.0" encoding="utf-8"?>
<!-- Generator: Adobe Illustrator 27.4.0, SVG Export Plug-In . SVG Version: 6.00 Build 0)  -->
<svg version="1.1" id="Layer_1" xmlns="http://www.w3.org/2000/svg" xmlns:xlink="http://www.w3.org/1999/xlink" x="0px" y="0px"
	 viewBox="0 0 63.8 94.2" style="enable-background:new 0 0 63.8 94.2;" xml:space="preserve">
<style type="text/css">
	.st0{fill:#FFFFFF;}
	.st1{fill:#054C2D;}
	.st2{fill:#51B64B;}
	.st3{fill:#008D4A;}
</style>
<g>
	<polygon class="st0" points="31.9,0 0,10.4 0,83.7 31.9,94.2 63.8,83.5 63.8,10.4 	"/>
	<polygon class="st1" points="31.9,82.3 31.9,82.3 31.9,82.3 	"/>
	<polygon class="st2" points="31.9,21.9 55.2,14.4 61,12.5 31.9,3 2.9,12.5 2.9,12.5 	"/>
	<path class="st2" d="M31.9,21.9L2.9,12.5L31.9,21.9z"/>
	<polygon class="st3" points="31.9,82.3 31.9,82.3 31.9,82.3 	"/>
	<polygon class="st3" points="31.9,21.9 55.2,14.4 31.9,21.9 	"/>
	<path class="st3" d="M31.9,21.9L31.9,21.9L31.9,21.9z"/>
	<polygon class="st0" points="31.9,35.3 31.9,35.3 31.9,35.3 2.9,25.9 2.9,30.4 31.9,39.8 31.9,39.8 31.9,39.8 61,30.4 61,25.9 	"/>
	<polygon class="st0" points="31.9,26.4 31.9,26.4 31.9,26.4 2.9,16.9 2.9,21.4 31.9,30.9 31.9,30.9 31.9,30.9 61,21.4 61,16.9 	"/>
	<g>
		<path class="st1" d="M3.2,74.3L5,74.9c0.5,0.2,0.8,0.3,1,0.5c0.2,0.2,0.4,0.4,0.5,0.6c0.1,0.3,0.2,0.6,0.2,0.8
			c0,0.3-0.1,0.5-0.2,0.7c-0.1,0.2-0.3,0.3-0.4,0.3c0.3,0.2,0.5,0.4,0.6,0.7c0.1,0.3,0.2,0.6,0.2,0.9c0,0.4-0.1,0.7-0.3,0.9
			c-0.2,0.2-0.4,0.3-0.7,0.3c-0.2,0-0.6-0.1-1.2-0.3l-1.5-0.5V74.3z M4.1,75.5v1.3L4.7,77c0.3,0.1,0.6,0.2,0.6,0.2
			c0.1,0,0.3,0,0.4-0.1c0.1-0.1,0.1-0.2,0.1-0.4c0-0.2,0-0.3-0.1-0.4c-0.1-0.1-0.2-0.2-0.2-0.3c-0.1-0.1-0.4-0.2-0.8-0.3L4.1,75.5z
			 M4.1,77.7v1.5l0.8,0.3c0.4,0.1,0.6,0.2,0.7,0.2c0.1,0,0.2-0.1,0.3-0.1C5.9,79.4,6,79.3,6,79.1c0-0.2,0-0.3-0.1-0.5
			c-0.1-0.1-0.2-0.3-0.3-0.3c-0.1-0.1-0.4-0.2-0.7-0.3L4.1,77.7z M7.6,75.8L8.4,76v3c0,0.5,0,0.8,0,0.9c0,0.3,0.1,0.5,0.3,0.7
			c0.1,0.2,0.3,0.3,0.6,0.4c0.2,0.1,0.4,0.1,0.5,0c0.1-0.1,0.2-0.2,0.3-0.3c0-0.2,0.1-0.5,0.1-1.1v-3.1l0.9,0.3v2.9
			c0,0.7,0,1.3-0.1,1.6c-0.1,0.3-0.2,0.5-0.5,0.6c-0.3,0.1-0.6,0.1-1,0c-0.5-0.1-0.8-0.3-1.1-0.6c-0.3-0.3-0.4-0.5-0.5-0.9
			c-0.1-0.3-0.2-0.9-0.2-1.8V75.8z M11.9,82.7v-5.5l0.9,0.3V83L11.9,82.7z M13.6,83.2v-5.5l0.9,0.3v4.5l2.2,0.7v0.9L13.6,83.2z
			 M17.3,78.9l1.6,0.5c0.4,0.1,0.7,0.3,0.9,0.4c0.2,0.2,0.4,0.4,0.6,0.7c0.2,0.3,0.3,0.6,0.4,1c0.1,0.4,0.1,0.8,0.1,1.4
			c0,0.5-0.1,0.9-0.2,1.2c-0.1,0.3-0.2,0.6-0.4,0.7c-0.2,0.2-0.3,0.2-0.6,0.3c-0.2,0-0.5,0-0.9-0.1l-1.6-0.5V78.9z M18.1,80.1v3.7
			l0.7,0.2c0.3,0.1,0.5,0.1,0.6,0.1c0.1,0,0.2-0.1,0.3-0.1c0.1-0.1,0.1-0.2,0.2-0.5C20,83.3,20,83,20,82.6c0-0.4,0-0.7-0.1-1
			c-0.1-0.3-0.1-0.5-0.3-0.6c-0.1-0.2-0.3-0.3-0.4-0.4c-0.1-0.1-0.4-0.2-0.7-0.3L18.1,80.1z M21.6,85.8v-5.5l0.9,0.3v5.5L21.6,85.8z
			 M23.3,86.4v-5.5l0.8,0.3l1.8,4.3v-3.7l0.8,0.3v5.5l-0.9-0.3l-1.7-4.2v3.6L23.3,86.4z M29.6,86.4v-0.9l1.9,0.6v2.2
			c-0.2,0.2-0.5,0.3-0.8,0.3c-0.3,0.1-0.7,0-1-0.1c-0.4-0.1-0.8-0.4-1.1-0.7c-0.3-0.3-0.6-0.7-0.8-1.2c-0.2-0.5-0.3-1-0.3-1.6
			c0-0.6,0.1-1.1,0.3-1.5c0.2-0.4,0.4-0.6,0.7-0.7c0.3-0.1,0.7-0.1,1.1,0c0.5,0.2,0.9,0.4,1.2,0.8c0.3,0.4,0.5,0.8,0.6,1.4L30.6,85
			c-0.1-0.3-0.2-0.6-0.4-0.8c-0.2-0.2-0.4-0.3-0.6-0.4c-0.4-0.1-0.7-0.1-0.9,0.2c-0.2,0.2-0.3,0.7-0.3,1.3c0,0.7,0.1,1.2,0.4,1.6
			c0.2,0.4,0.5,0.6,0.9,0.7c0.2,0.1,0.3,0.1,0.5,0c0.2,0,0.3-0.1,0.5-0.2v-0.7L29.6,86.4z"/>
		<path class="st3" d="M33,83.3l1-0.3c0.2-0.1,0.4-0.1,0.6,0c0.1,0.1,0.2,0.2,0.3,0.4c0.1,0.2,0.2,0.5,0.2,0.8
			c0.1,0.3,0.1,0.8,0.1,1.3c0,0.5,0,0.9-0.1,1.3c-0.1,0.4-0.1,0.7-0.2,0.9c-0.1,0.2-0.2,0.4-0.4,0.6c-0.1,0.1-0.3,0.3-0.5,0.3
			l-1,0.3V83.3z M33.5,84v3.7l0.4-0.1c0.2-0.1,0.3-0.1,0.4-0.2c0.1-0.1,0.1-0.2,0.2-0.3c0.1-0.1,0.1-0.3,0.1-0.6c0-0.3,0-0.6,0-1
			c0-0.4,0-0.7,0-1c0-0.2-0.1-0.4-0.2-0.5c-0.1-0.1-0.2-0.2-0.3-0.2c-0.1,0-0.2,0-0.4,0.1L33.5,84z M35.7,87.9v-5.5l2-0.6v0.9
			l-1.4,0.5v1.2l1.3-0.4v0.9l-1.3,0.4v1.5l1.5-0.5v0.9L35.7,87.9z M38.8,86.9l-0.9-5.2l0.6-0.2l0.7,3.9l0.6-4.3l0.6-0.2l-0.9,5.8
			L38.8,86.9z M40.6,86.3v-5.5l2-0.6v0.9l-1.4,0.5v1.2l1.3-0.4v0.9l-1.3,0.4v1.5l1.5-0.5v0.9L40.6,86.3z M43.1,85.5V80l0.5-0.2v4.5
			l1.3-0.4v0.9L43.1,85.5z M45.2,82.1c0-0.7,0.1-1.2,0.2-1.7c0.1-0.5,0.3-0.8,0.4-1.1c0.2-0.3,0.4-0.4,0.7-0.5
			c0.4-0.1,0.7,0,0.9,0.4c0.2,0.4,0.4,1.1,0.4,2c0,0.9-0.1,1.7-0.4,2.3c-0.2,0.5-0.5,0.9-0.9,1c-0.4,0.1-0.7,0-0.9-0.4
			C45.4,83.6,45.2,83,45.2,82.1 M45.8,81.8c0,0.6,0.1,1.1,0.2,1.4c0.1,0.3,0.3,0.4,0.5,0.3c0.2-0.1,0.4-0.3,0.5-0.6
			c0.1-0.4,0.2-0.9,0.2-1.5c0-0.6-0.1-1.1-0.2-1.3c-0.1-0.3-0.3-0.4-0.5-0.3c-0.2,0.1-0.4,0.3-0.5,0.6
			C45.8,80.7,45.8,81.2,45.8,81.8 M48.2,83.8v-5.5l0.9-0.3c0.3-0.1,0.5-0.1,0.6-0.1c0.2,0,0.3,0.2,0.4,0.4c0.1,0.2,0.2,0.6,0.2,1
			c0,0.4,0,0.7-0.1,1c-0.1,0.3-0.2,0.5-0.3,0.7c-0.1,0.2-0.4,0.3-0.7,0.4l-0.4,0.1v2.1L48.2,83.8z M48.7,79.1v1.6l0.3-0.1
			c0.2-0.1,0.3-0.1,0.4-0.2c0.1-0.1,0.1-0.2,0.2-0.3c0-0.1,0.1-0.3,0.1-0.5c0-0.2,0-0.3-0.1-0.4c0-0.1-0.1-0.2-0.2-0.2
			c-0.1,0-0.2,0-0.4,0.1L48.7,79.1z M50.7,83v-5.5l0.8-0.3l0.5,3.6l0.5-3.9l0.8-0.3v5.5l-0.5,0.2V78l-0.5,4.5l-0.5,0.2l-0.5-4.2v4.4
			L50.7,83z M53.8,82v-5.5l2-0.6v0.9l-1.4,0.5v1.2l1.3-0.4V79l-1.3,0.4v1.5l1.5-0.5v0.9L53.8,82z M56.2,81.2v-5.5l0.5-0.2l1.1,3.3
			v-3.7l0.5-0.2v5.5l-0.5,0.2l-1.1-3.3V81L56.2,81.2z M59.5,80.1v-4.6l-0.8,0.3v-0.9l2.1-0.7v0.9L60,75.4V80L59.5,80.1z"/>
	</g>
	<polygon class="st0" points="53.8,43.6 53.8,62.5 57.8,61.3 57.8,42.4 	"/>
	<g>
		<path class="st1" d="M2.9,30.4v42.5l29.1,9.4V39.8L2.9,30.4z"/>
		<path class="st3" d="M31.9,39.8v42.5L61,72.8V30.4L31.9,39.8z"/>
	</g>
	<polygon class="st1" points="31.9,30.9 2.9,21.4 2.9,25.9 31.9,35.3 	"/>
	<polygon class="st3" points="61,21.4 31.9,30.9 31.9,35.3 61,25.9 	"/>
	<polygon class="st1" points="31.9,21.9 31.9,21.9 2.9,12.5 2.9,16.9 31.9,26.4 	"/>
	<polygon class="st3" points="61,12.5 31.9,21.9 31.9,21.9 31.9,26.4 61,16.9 	"/>
	<g>
		<path class="st0" d="M16.6,51l-3-1v-1.6l3,1V51L16.6,51z M16.4,46.6L4.9,42.9c0.3-1,1-1.3,1.8-1.1l7.9,2.5
			C15.5,44.6,16.1,45.4,16.4,46.6L16.4,46.6z M16.6,53.2l-3-1v-1.6l3,1V53.2L16.6,53.2z M16.6,48.8L4.7,45v-1.1c0-0.2,0-0.4,0-0.5
			l11.8,3.8c0,0.2,0,0.4,0,0.6V48.8L16.6,48.8z M16.6,55.4l-3-1v-1.6l3,1V55.4L16.6,55.4z M16.6,57.6l-3-1V55l3,1V57.6L16.6,57.6z
			 M16.6,59.8l-3-1v-1.6l3,1V59.8L16.6,59.8z M7.7,48.2l-3-1v-1.6l3,1V48.2L7.7,48.2z M7.7,50.4l-3-1v-1.6l3,1V50.4L7.7,50.4z
			 M7.7,52.6l-3-1V50l3,1V52.6L7.7,52.6z M16.6,61.5c0,0.2,0,0.4,0,0.5L4.8,58.2c0-0.2,0-0.4,0-0.6v-1.1l11.9,3.8V61.5L16.6,61.5z
			 M7.7,54.7l-3-1v-1.6l3,1V54.7L7.7,54.7z M16.4,62.5c-0.3,1-1,1.3-1.8,1.1L6.7,61c-0.9-0.3-1.5-1-1.8-2.2L16.4,62.5L16.4,62.5z
			 M7.7,56.9l-3-1v-1.6l3,1V56.9L7.7,56.9z M30.2,54.8c0,0.2,0,0.4,0,0.5l-2.9-0.9v-1.6l3,1V54.8L30.2,54.8z M30,50.9l-11.7-3.8
			v-1.6l9.9,3.2C29.1,49,29.7,49.7,30,50.9L30,50.9z M30.2,53.2l-11.9-3.8v-1.6l11.8,3.8c0,0.2,0,0.4,0,0.6V53.2L30.2,53.2z
			 M30.2,62l-3-1v-1.6l2.9,0.9c0,0.2,0,0.4,0,0.6V62L30.2,62z M30,55.9c-0.3,1-1,1.3-1.8,1.1l-9.9-3.2v-1.6L30,55.9L30,55.9z
			 M30.2,64.2l-3-1v-1.6l3,1V64.2L30.2,64.2z M30,59.7L18.3,56v-1.6l9.9,3.2C29.1,57.8,29.7,58.5,30,59.7L30,59.7z M30.2,66.4l-3-1
			v-1.6l3,1V66.4L30.2,66.4z M21.3,52.5l-3-1v-1.6l3,1V52.5L21.3,52.5z M30.2,68.6l-3-1V66l3,1V68.6L30.2,68.6z M21.3,59.1l-3-1
			v-1.6l3,1V59.1L21.3,59.1z M21.3,61.3l-3-1v-1.6l3,1V61.3L21.3,61.3z M21.3,63.5l-3-1v-1.6l3,1V63.5L21.3,63.5z M21.3,65.7l-3-1
			v-1.6l3,1V65.7L21.3,65.7z"/>
		<polygon class="st0" points="57.8,61 53.8,62.3 53.8,60.6 57.8,59.4 57.8,61 		"/>
		<polygon class="st0" points="57.8,58.8 53.8,60.1 53.8,58.5 57.8,57.2 57.8,58.8 		"/>
		<polygon class="st0" points="57.8,56.7 53.8,57.9 53.8,56.3 57.8,55.1 57.8,56.7 		"/>
		<polygon class="st0" points="57.8,54.5 53.8,55.8 53.8,54.1 57.8,52.9 57.8,54.5 		"/>
		<polygon class="st0" points="57.8,52.3 53.8,53.6 53.8,52 57.8,50.7 57.8,52.3 		"/>
		<polygon class="st0" points="57.8,50.2 53.8,51.4 53.8,49.8 57.8,48.6 57.8,50.2 		"/>
		<polygon class="st0" points="57.8,48 53.8,49.3 53.8,47.6 57.8,46.4 57.8,48 		"/>
		<polygon class="st0" points="57.8,45.9 53.8,47.1 53.8,45.5 57.8,44.2 57.8,45.9 		"/>
		<polygon class="st0" points="57.8,43.7 53.8,44.9 53.8,43.3 57.8,42.1 57.8,43.7 		"/>
		<polygon class="st0" points="38.1,62.9 34.2,64.1 34.2,62.5 38.1,61.3 38.1,62.9 		"/>
		<path class="st0" d="M49.7,61.9c-0.5,1.2-1.3,2-2.4,2.4l-13.1,4.1v-1.6L49.7,61.9L49.7,61.9z"/>
		<polygon class="st0" points="38.1,60.7 34.2,62 34.2,60.3 38.1,59.1 38.1,60.7 		"/>
		<path class="st0" d="M49.9,60.8c0,0.2,0,0.4-0.1,0.6l-15.7,5v-1.6l15.8-5V60.8L49.9,60.8z"/>
		<polygon class="st0" points="38.1,54.2 34.2,55.5 34.2,53.8 38.1,52.6 38.1,54.2 		"/>
		<path class="st0" d="M49.7,54.9l-15.5,4.9v-1.6L47.3,54C48.5,53.7,49.3,53.9,49.7,54.9L49.7,54.9z"/>
		<polygon class="st0" points="49.9,59.2 46,60.4 46,58.8 49.9,57.5 49.9,59.2 		"/>
		<path class="st0" d="M49.7,51.1c-0.5,1.2-1.3,2-2.4,2.4l-13.1,4.1V56L49.7,51.1L49.7,51.1z"/>
		<path class="st0" d="M49.9,57L46,58.2v-1.6l3.9-1.2c0,0.2,0.1,0.3,0.1,0.5V57L49.9,57z"/>
		<path class="st0" d="M49.9,48.3l-15.8,5v-1.6l15.7-5c0,0.2,0.1,0.3,0.1,0.5V48.3z"/>
		<path class="st0" d="M49.7,46.2l-15.5,4.9v-1.6l13.1-4.1C48.5,45,49.3,45.3,49.7,46.2L49.7,46.2z"/>
		<path class="st0" d="M49.9,49.9c0,0.2,0,0.4-0.1,0.6L46,51.7v-1.6l3.9-1.2V49.9L49.9,49.9z"/>
	</g>
</g>
</svg>
