<?xml version="1.0" encoding="utf-8"?>
<!-- Generator: Adobe Illustrator 27.4.0, SVG Export Plug-In . SVG Version: 6.00 Build 0)  -->
<svg version="1.1" id="Layer_1" xmlns="http://www.w3.org/2000/svg" xmlns:xlink="http://www.w3.org/1999/xlink" x="0px" y="0px"
	 viewBox="0 0 116.9 59.1" style="enable-background:new 0 0 116.9 59.1;" xml:space="preserve">
<style type="text/css">
	.st0{fill:#FDB714;}
	.st1{font-family:'FiraGO-Medium';}
	.st2{font-size:11.3542px;}
	.st3{fill:url(#SVGID_1_);}
	.st4{fill:url(#SVGID_00000076593975764022737820000016619621598853594267_);}
	.st5{fill:url(#SVGID_00000170265175392427248890000008658106500002037646_);}
	.st6{fill:url(#SVGID_00000150788661134900560010000015107845708955996578_);}
	.st7{fill:url(#SVGID_00000036960377508002409260000002147852444005673145_);}
	.st8{fill:url(#SVGID_00000081609556202694985450000002024784355228113544_);}
</style>
<g>
	<text transform="matrix(1 0 0 1 60.8237 13.6623)"><tspan x="0" y="0" class="st0 st1 st2">ცენთრალ</tspan><tspan x="0" y="17.8" class="st0 st1 st2">ფარქ</tspan><tspan x="0" y="35.7" class="st0 st1 st2">თავერსი</tspan></text>
	<linearGradient id="SVGID_1_" gradientUnits="userSpaceOnUse" x1="-0.948" y1="16.2507" x2="26.049" y2="16.2507">
		<stop  offset="0" style="stop-color:#F7C11E"/>
		<stop  offset="1" style="stop-color:#E79224"/>
	</linearGradient>
	<path class="st3" d="M0,23.6l11.2-5.4c1.5-0.7,3.2-0.7,4.7,0L27,23.6v-8.9L15.8,9.4c-1.5-0.7-3.2-0.7-4.7,0L0,14.8V23.6"/>
	
		<linearGradient id="SVGID_00000150803529954657815360000017580544059631087013_" gradientUnits="userSpaceOnUse" x1="-0.948" y1="33.9684" x2="26.049" y2="33.9684">
		<stop  offset="0" style="stop-color:#F7C11E"/>
		<stop  offset="1" style="stop-color:#E79224"/>
	</linearGradient>
	<path style="fill:url(#SVGID_00000150803529954657815360000017580544059631087013_);" d="M0,41.4L11.2,36c1.5-0.7,3.2-0.7,4.7,0
		L27,41.4v-8.9l-11.2-5.4c-1.5-0.7-3.2-0.7-4.7,0L0,32.5V41.4"/>
	
		<linearGradient id="SVGID_00000158015100688691868390000003236506833954033557_" gradientUnits="userSpaceOnUse" x1="-0.948" y1="51.686" x2="26.049" y2="51.686">
		<stop  offset="0" style="stop-color:#F7C11E"/>
		<stop  offset="1" style="stop-color:#E79224"/>
	</linearGradient>
	<path style="fill:url(#SVGID_00000158015100688691868390000003236506833954033557_);" d="M0,59.1l11.2-5.4c1.5-0.7,3.2-0.7,4.7,0
		L27,59.1v-8.9l-11.2-5.4c-1.5-0.7-3.2-0.7-4.7,0L0,50.2V59.1"/>
	
		<linearGradient id="SVGID_00000067945278530723882500000003280589576713561247_" gradientUnits="userSpaceOnUse" x1="26.049" y1="25.1095" x2="53.046" y2="25.1095">
		<stop  offset="0" style="stop-color:#F7C11E"/>
		<stop  offset="1" style="stop-color:#E79224"/>
	</linearGradient>
	<path style="fill:url(#SVGID_00000067945278530723882500000003280589576713561247_);" d="M27,32.5l11.2-5.4c1.5-0.7,3.2-0.7,4.7,0
		L54,32.5v-8.9l-11.2-5.4c-1.5-0.7-3.2-0.7-4.7,0L27,23.6V32.5"/>
	
		<linearGradient id="SVGID_00000069387305957359431170000013370357290756412309_" gradientUnits="userSpaceOnUse" x1="26.049" y1="42.8272" x2="53.046" y2="42.8272">
		<stop  offset="0" style="stop-color:#F7C11E"/>
		<stop  offset="1" style="stop-color:#E79224"/>
	</linearGradient>
	<path style="fill:url(#SVGID_00000069387305957359431170000013370357290756412309_);" d="M27,50.2l11.2-5.4c1.5-0.7,3.2-0.7,4.7,0
		L54,50.2v-8.9L42.8,36c-1.5-0.7-3.2-0.7-4.7,0L27,41.4V50.2"/>
	
		<linearGradient id="SVGID_00000160875321721613878220000013531679063647684494_" gradientUnits="userSpaceOnUse" x1="26.049" y1="7.3919" x2="53.046" y2="7.3919">
		<stop  offset="0" style="stop-color:#F7C11E"/>
		<stop  offset="1" style="stop-color:#E79224"/>
	</linearGradient>
	<path style="fill:url(#SVGID_00000160875321721613878220000013531679063647684494_);" d="M27,14.8l11.2-5.4c1.5-0.7,3.2-0.7,4.7,0
		L54,14.8V5.9L42.8,0.5c-1.5-0.7-3.2-0.7-4.7,0L27,5.9V14.8"/>
</g>
</svg>
