<?xml version="1.0" encoding="utf-8"?>
<!-- Generator: Adobe Illustrator 27.4.0, SVG Export Plug-In . SVG Version: 6.00 Build 0)  -->
<svg version="1.1" id="Layer_1" xmlns="http://www.w3.org/2000/svg" xmlns:xlink="http://www.w3.org/1999/xlink" x="0px" y="0px"
	 viewBox="0 0 106.6 57.8" style="enable-background:new 0 0 106.6 57.8;" xml:space="preserve">
<style type="text/css">
	.st0{fill:#FDB714;}
</style>
<g>
	<g>
		<path class="st0" d="M64.5,17.4c-1.4,0-3.2-0.4-3.2-4.3c0-3.9,2.2-4.3,3.4-4.3c0.9,0,1.6,0.3,1.6,0.3v1.5c0,0-0.8-0.3-1.5-0.3
			c-0.8,0-1.5,0.5-1.5,2.8c0,2.2,0.5,2.8,1.4,2.8c0.8,0,1.6-0.3,1.6-0.3v1.5C66.3,17.1,65.6,17.4,64.5,17.4z"/>
		<path class="st0" d="M72.5,12.1h-2.9v1.1h2.5v1.4h-2.5v1.2h3v1.5h-5v-6.7h5.1L72.5,12.1z"/>
		<path class="st0" d="M78,17.3l-1.4-2.6c-0.4-0.7-0.8-1.7-0.8-1.7s0.2,1.2,0.2,2.1v2.2h-2v-6.7h2l1.3,2.3c0.5,0.8,0.9,1.9,0.9,1.9
			s-0.2-1.3-0.2-2.2v-2h2v6.7H78z"/>
		<path class="st0" d="M86.8,12.1h-1.7v5.2h-2v-5.2h-2v-1.6h6L86.8,12.1z"/>
		<path class="st0" d="M91.5,17.3L91.2,16c-0.2-0.8-0.3-1-0.5-1.2l-0.8,0.1v2.4h-2v-6.7h2.5c1.8,0,3.3,0.2,3.3,2
			c0,1.2-0.5,1.6-1.3,1.9c0.4,0.2,0.6,0.6,0.8,1.3l0.5,1.6H91.5z M90.2,12h-0.4v1.7c1.2,0,1.7-0.2,1.7-1C91.6,12.1,91.2,12,90.2,12z
			"/>
		<path class="st0" d="M99.1,17.3l-0.3-1.3h-2.1l-0.3,1.3h-2.1l2.1-6.7h2.8l2.1,6.7H99.1z M98.2,13.5c-0.2-1-0.5-2-0.5-2
			s-0.2,1-0.5,2L97,14.6h1.5L98.2,13.5z"/>
		<path class="st0" d="M106.4,17.3h-4.2v-6.7h2v5.2h2.3L106.4,17.3z"/>
		<path class="st0" d="M63.7,29.4v2.5h-2v-8.4H64c2,0,3.3,0.4,3.3,2.9C67.3,28.7,66,29.3,63.7,29.4z M64.1,24.9h-0.4V28
			c1.1,0,1.6-0.3,1.6-1.7C65.3,25,64.8,24.9,64.1,24.9z"/>
		<path class="st0" d="M72.6,31.9l-0.3-1.3h-2.1l-0.3,1.3h-2.1l2.1-6.7h2.8l2.1,6.7H72.6z M71.8,28.1c-0.2-1-0.5-2-0.5-2
			s-0.2,1-0.5,2l-0.3,1.1H72L71.8,28.1z"/>
		<path class="st0" d="M79.5,31.9l-0.3-1.3c-0.2-0.8-0.3-1-0.5-1.2l-0.8,0.1v2.4h-2v-6.7h2.5c1.8,0,3.3,0.2,3.3,2
			c0,1.2-0.5,1.6-1.3,1.9c0.4,0.2,0.6,0.6,0.8,1.3l0.5,1.6H79.5z M78.2,26.5h-0.4v1.7c1.2,0,1.7-0.2,1.7-1
			C79.6,26.7,79.2,26.5,78.2,26.5z"/>
		<path class="st0" d="M83.1,31.9v-6.7h2v6.7H83.1z M87.1,32l-1.9-3.6l1.7-3.2h2.3l-2,3.1l2.1,3.6L87.1,32z"/>
		<path class="st0" d="M66.6,39.6h-1.7v6.8h-2v-6.8h-2V38h6L66.6,39.6z"/>
		<path class="st0" d="M70.4,46.6c-1.3,0-3.2-0.3-3.2-3.5c0-3.1,1.9-3.5,3.2-3.5c1.3,0,3.2,0.3,3.2,3.5
			C73.6,46.2,71.7,46.6,70.4,46.6z M70.4,40.9c-0.8,0-1.1,0.5-1.1,2.2c0,1.6,0.3,2.1,1.1,2.1c0.8,0,1.2-0.6,1.2-2.1
			C71.5,41.4,71.2,40.9,70.4,40.9z"/>
		<path class="st0" d="M83.2,46.4h-2.7L80,43.6c-0.2-0.8-0.5-2.8-0.5-2.8s-0.3,2-0.5,2.8l-0.6,2.9h-2.7l-1.4-6.7h2.2l0.3,3.1
			c0.1,0.9,0.2,2.6,0.2,2.6s0.3-1.6,0.4-2.6l0.6-3.1h2.8l0.6,3.1c0.2,0.8,0.4,2.6,0.4,2.6s0.2-1.7,0.3-2.6l0.3-3.1h2.2L83.2,46.4z"
			/>
		<path class="st0" d="M90.7,41.2h-2.9v1.1h2.5v1.4h-2.5v1.2h3v1.5h-5v-6.7h5.1L90.7,41.2z"/>
		<path class="st0" d="M95.8,46.4l-0.3-1.3c-0.2-0.8-0.3-1-0.5-1.2L94.2,44v2.4h-2v-6.7h2.5c1.8,0,3.3,0.2,3.3,2
			c0,1.2-0.5,1.6-1.3,1.9c0.4,0.2,0.6,0.6,0.8,1.3l0.5,1.6H95.8z M94.6,41.1h-0.4v1.7c1.2,0,1.7-0.2,1.7-1
			C95.9,41.2,95.6,41.1,94.6,41.1z"/>
		<path class="st0" d="M101,46.6c-1,0-2.1-0.3-2.1-0.3v-1.6c0,0,1.3,0.4,2,0.4c0.7,0,1.1-0.1,1.1-0.6c0-0.4-0.4-0.5-0.9-0.7
			l-0.5-0.2c-0.8-0.3-1.6-0.7-1.6-1.9c0-1.9,1.5-2.1,2.9-2.1c1.2,0,2,0.3,2,0.3v1.5c0,0-1.1-0.3-1.8-0.3c-0.6,0-1,0.1-1,0.5
			c0,0.3,0.4,0.4,0.9,0.6l0.5,0.2c0.8,0.3,1.6,0.7,1.6,2C104,46.4,102.3,46.6,101,46.6z"/>
	</g>
	<path class="st0" d="M0,23.1l10.9-5.3c1.4-0.7,3.1-0.7,4.6,0l10.9,5.3v-8.7L15.5,9.2c-1.4-0.7-3.1-0.7-4.6,0L0,14.5V23.1"/>
	<path class="st0" d="M0,40.5l10.9-5.3c1.4-0.7,3.1-0.7,4.6,0l10.9,5.3v-8.7l-10.9-5.3c-1.4-0.7-3.1-0.7-4.6,0L0,31.8V40.5"/>
	<path class="st0" d="M0,57.8l10.9-5.3c1.4-0.7,3.1-0.7,4.6,0l10.9,5.3v-8.7l-10.9-5.3c-1.4-0.7-3.1-0.7-4.6,0L0,49.1V57.8"/>
	<path class="st0" d="M26.4,31.8l10.9-5.3c1.4-0.7,3.1-0.7,4.6,0l10.9,5.3v-8.7l-10.9-5.3c-1.4-0.7-3.1-0.7-4.6,0l-10.9,5.3V31.8"/>
	<path class="st0" d="M26.4,49.1l10.9-5.3c1.4-0.7,3.1-0.7,4.6,0l10.9,5.3v-8.7l-10.9-5.3c-1.4-0.7-3.1-0.7-4.6,0l-10.9,5.3V49.1"/>
	<path class="st0" d="M26.4,14.5l10.9-5.3c1.4-0.7,3.1-0.7,4.6,0l10.9,5.3V5.8L41.9,0.5c-1.4-0.7-3.1-0.7-4.6,0L26.4,5.8V14.5"/>
</g>
</svg>
